<svg width="22" height="23" viewBox="0 0 22 23" fill="none" xmlns="http://www.w3.org/2000/svg">
<path d="M9.22379 21.6247C10.2719 21.6247 11.1216 20.7853 11.1216 19.7497C11.1216 18.7142 10.2719 17.8748 9.22379 17.8748C8.17566 17.8748 7.32599 18.7142 7.32599 19.7497C7.32599 20.7853 8.17566 21.6247 9.22379 21.6247Z" stroke="black"/>
<path d="M18.0802 21.6247C19.1283 21.6247 19.978 20.7853 19.978 19.7497C19.978 18.7142 19.1283 17.8748 18.0802 17.8748C17.032 17.8748 16.1824 18.7142 16.1824 19.7497C16.1824 20.7853 17.032 21.6247 18.0802 21.6247Z" stroke="black"/>
<path d="M1 1H3.5304L7.96366 14.7499H18.0802" stroke="black" stroke-linecap="round" stroke-linejoin="round"/>
<path d="M6.97703 11.6249L4.54279 4.125H20.3666C20.4669 4.12488 20.5658 4.14831 20.6551 4.19338C20.7445 4.23844 20.8217 4.30384 20.8804 4.38418C20.9391 4.46452 20.9776 4.55749 20.9928 4.65544C21.0079 4.75338 20.9993 4.85349 20.9676 4.94749L18.8585 11.1974C18.8166 11.3218 18.7361 11.4301 18.6285 11.5068C18.5209 11.5835 18.3915 11.6248 18.2588 11.6249H6.97703Z" stroke="black" stroke-linecap="round" stroke-linejoin="round"/>
</svg>
