<svg width="29" height="34" viewBox="0 0 29 34" fill="none" xmlns="http://www.w3.org/2000/svg">
<path d="M11.5429 13.4444C11.5429 12.9474 11.1399 12.5444 10.6429 12.5444C10.1458 12.5444 9.74286 12.9474 9.74286 13.4444H11.5429ZM9.74286 27.6667C9.74286 28.1637 10.1458 28.5667 10.6429 28.5667C11.1399 28.5667 11.5429 28.1637 11.5429 27.6667H9.74286ZM19.2571 13.4444C19.2571 12.9474 18.8542 12.5444 18.3571 12.5444C17.8601 12.5444 17.4571 12.9474 17.4571 13.4444H19.2571ZM17.4571 27.6667C17.4571 28.1637 17.8601 28.5667 18.3571 28.5667C18.8542 28.5667 19.2571 28.1637 19.2571 27.6667H17.4571ZM5.03461 32.6125L5.41722 31.7978L5.03461 32.6125ZM3.34898 31.0586L4.13666 30.6232H4.13665L3.34898 31.0586ZM25.651 31.0586L24.8633 30.6232L25.651 31.0586ZM23.9654 32.6125L23.5828 31.7978L23.9654 32.6125ZM1 7.21111C0.502944 7.21111 0.1 7.61405 0.1 8.11111C0.1 8.60817 0.502944 9.01111 1 9.01111V7.21111ZM28 9.01111C28.4971 9.01111 28.9 8.60817 28.9 8.11111C28.9 7.61405 28.4971 7.21111 28 7.21111V9.01111ZM6.85 8.11111C6.85 8.60817 7.25294 9.01111 7.75 9.01111C8.24706 9.01111 8.65 8.60817 8.65 8.11111H6.85ZM20.35 8.11111C20.35 8.60817 20.7529 9.01111 21.25 9.01111C21.7471 9.01111 22.15 8.60817 22.15 8.11111H20.35ZM9.74286 13.4444V27.6667H11.5429V13.4444H9.74286ZM17.4571 13.4444V27.6667H19.2571V13.4444H17.4571ZM25.1714 8.11111V27.3111H26.9714V8.11111H25.1714ZM19.9 32.1H9.1V33.9H19.9V32.1ZM2.02857 8.11111V27.3111H3.82857V8.11111H2.02857ZM9.1 32.1C8.0062 32.1 7.23576 32.0994 6.63423 32.0541C6.04124 32.0094 5.68843 31.9252 5.41722 31.7978L4.65199 33.4271C5.20587 33.6872 5.80566 33.7968 6.49904 33.849C7.18388 33.9006 8.0336 33.9 9.1 33.9V32.1ZM2.02857 27.3111C2.02857 28.2907 2.02775 29.084 2.08464 29.7259C2.14267 30.3806 2.26585 30.9595 2.5613 31.494L4.13665 30.6232C4.0117 30.3972 3.92468 30.098 3.87761 29.5669C3.82939 29.023 3.82857 28.3229 3.82857 27.3111H2.02857ZM5.41722 31.7978C4.8541 31.5334 4.41007 31.1179 4.13666 30.6232L2.5613 31.494C3.02747 32.3374 3.76358 33.0098 4.65199 33.4271L5.41722 31.7978ZM25.1714 27.3111C25.1714 28.3229 25.1706 29.023 25.1224 29.5669C25.0753 30.098 24.9883 30.3972 24.8633 30.6232L26.4387 31.494C26.7341 30.9595 26.8573 30.3806 26.9154 29.7259C26.9723 29.084 26.9714 28.2907 26.9714 27.3111H25.1714ZM19.9 33.9C20.9664 33.9 21.8161 33.9006 22.501 33.849C23.1943 33.7968 23.7941 33.6872 24.348 33.4271L23.5828 31.7978C23.3116 31.9252 22.9588 32.0094 22.3658 32.0541C21.7642 32.0994 20.9938 32.1 19.9 32.1V33.9ZM24.8633 30.6232C24.5899 31.1179 24.1459 31.5334 23.5828 31.7978L24.348 33.4271C25.2364 33.0098 25.9725 32.3374 26.4387 31.494L24.8633 30.6232ZM1 9.01111H2.92857V7.21111H1V9.01111ZM2.92857 9.01111H26.0714V7.21111H2.92857V9.01111ZM26.0714 9.01111H28V7.21111H26.0714V9.01111ZM8.65 6.68889C8.65 4.18216 11.1187 1.9 14.5 1.9V0.1C10.4254 0.1 6.85 2.91184 6.85 6.68889H8.65ZM14.5 1.9C17.8813 1.9 20.35 4.18216 20.35 6.68889H22.15C22.15 2.91184 18.5746 0.1 14.5 0.1V1.9ZM6.85 6.68889V8.11111H8.65V6.68889H6.85ZM20.35 6.68889V8.11111H22.15V6.68889H20.35Z" fill="#2C3E50"/>
</svg>
