<svg width="80" height="46" viewBox="0 0 80 46" fill="none" xmlns="http://www.w3.org/2000/svg">
<rect width="80" height="46" rx="8" fill="white"/>
<path d="M38.8549 22.0879V26.9405H37.3047V14.9566H41.4161C41.9068 14.9464 42.3947 15.0329 42.8517 15.2109C43.3086 15.389 43.7255 15.6552 44.0783 15.9941C44.4347 16.3124 44.7183 16.7028 44.9102 17.139C45.102 17.5753 45.1975 18.0472 45.1904 18.5232C45.2006 19.0017 45.1065 19.4767 44.9146 19.9157C44.7226 20.3548 44.4374 20.7474 44.0783 21.0666C43.3594 21.7475 42.472 22.0875 41.4161 22.0869H38.8549V22.0879ZM38.8549 16.432V20.6153H41.4546C41.7396 20.6237 42.0232 20.5729 42.2873 20.4663C42.5514 20.3596 42.7902 20.1993 42.9884 19.9957C43.1855 19.8054 43.3422 19.5777 43.4493 19.3262C43.5563 19.0747 43.6114 18.8044 43.6114 18.5313C43.6114 18.2583 43.5563 17.988 43.4493 17.7365C43.3422 17.4849 43.1855 17.2573 42.9884 17.0669C42.7927 16.8591 42.5547 16.6949 42.2903 16.5852C42.0259 16.4756 41.741 16.4231 41.4546 16.4311H38.8549V16.432Z" fill="#5F6368"/>
<path d="M48.7625 18.4735C49.9083 18.4735 50.8128 18.7776 51.4759 19.3857C52.1389 19.9938 52.4702 20.8276 52.4695 21.8871V26.9405H50.9867V25.8027H50.9193C50.2774 26.7397 49.4237 27.2083 48.3581 27.2083C47.4486 27.2083 46.6876 26.9405 46.0752 26.4051C45.7814 26.1593 45.5464 25.8515 45.3875 25.5042C45.2286 25.1568 45.1497 24.7786 45.1567 24.3971C45.1567 23.5486 45.4795 22.8739 46.1253 22.3728C46.7711 21.8718 47.6331 21.6206 48.7115 21.6194C49.632 21.6194 50.3901 21.7867 50.9858 22.1214V21.7695C50.9875 21.5094 50.931 21.2522 50.8202 21.0166C50.7095 20.7809 50.5473 20.5726 50.3455 20.4069C49.9355 20.0396 49.4013 19.8392 48.8492 19.8456C47.9833 19.8456 47.2981 20.2084 46.7935 20.9338L45.4282 20.0799C46.1792 19.009 47.2907 18.4735 48.7625 18.4735ZM46.7569 24.4306C46.7559 24.6265 46.802 24.8198 46.8914 24.9945C46.9809 25.1691 47.111 25.32 47.2711 25.4345C47.6139 25.7024 48.0395 25.8443 48.4756 25.8361C49.1298 25.8351 49.7568 25.5765 50.2193 25.1171C50.7329 24.6371 50.9896 24.0739 50.9896 23.4275C50.5063 23.045 49.8323 22.8538 48.9676 22.8538C48.3379 22.8538 47.8129 23.0046 47.3924 23.3061C46.9678 23.6121 46.7569 23.984 46.7569 24.4306Z" fill="#5F6368"/>
<path d="M60.98 18.7412L55.8037 30.5549H54.2035L56.1244 26.4213L52.7207 18.7412H54.4057L56.8658 24.6313H56.8995L59.2922 18.7412H60.98Z" fill="#5F6368"/>
<path d="M32.5907 21.0418C32.5913 20.5727 32.5514 20.1043 32.4713 19.642H25.9336V22.2935H29.6781C29.6015 22.717 29.4393 23.1206 29.2014 23.4802C28.9634 23.8398 28.6546 24.1478 28.2935 24.3856V26.1067H30.5283C31.8368 24.9086 32.5907 23.1368 32.5907 21.0418Z" fill="#4285F4"/>
<path d="M25.9323 27.7696C27.8031 27.7696 29.3783 27.1595 30.527 26.1077L28.2922 24.3866C27.6702 24.8054 26.8691 25.0444 25.9323 25.0444C24.1241 25.0444 22.5893 23.8339 22.0405 22.2026H19.7383V23.9764C20.3153 25.1166 21.2001 26.0751 22.2938 26.7449C23.3876 27.4148 24.6473 27.7695 25.9323 27.7696Z" fill="#34A853"/>
<path d="M22.0404 22.2027C21.7502 21.3479 21.7502 20.4222 22.0404 19.5674V17.7937H19.7382C19.2528 18.7529 19 19.8115 19 20.8851C19 21.9586 19.2528 23.0172 19.7382 23.9764L22.0404 22.2027Z" fill="#FBBC04"/>
<path d="M25.9323 16.7256C26.9209 16.7095 27.8762 17.0805 28.5917 17.7583L30.5703 15.7933C29.3157 14.623 27.6535 13.9805 25.9323 14.0005C24.6473 14.0005 23.3876 14.3552 22.2938 15.0251C21.2001 15.6949 20.3153 16.6534 19.7383 17.7936L22.0405 19.5674C22.5893 17.9361 24.1241 16.7256 25.9323 16.7256Z" fill="#EA4335"/>
</svg>
