<svg width="38" height="38" viewBox="0 0 38 38" fill="none" xmlns="http://www.w3.org/2000/svg">
<rect x="0.984009" width="37.024" height="37.024" rx="10.68" fill="#BE9A80"/>
<path d="M15.8469 15.244V24.272H13.4356V15.244H15.8469ZM13.2854 12.8911C13.2854 12.5407 13.4078 12.2514 13.6525 12.0233C13.8973 11.7953 14.2255 11.6813 14.6371 11.6813C15.0432 11.6813 15.3686 11.7953 15.6133 12.0233C15.8636 12.2514 15.9888 12.5407 15.9888 12.8911C15.9888 13.2415 15.8636 13.5308 15.6133 13.7588C15.3686 13.9869 15.0432 14.1009 14.6371 14.1009C14.2255 14.1009 13.8973 13.9869 13.6525 13.7588C13.4078 13.5308 13.2854 13.2415 13.2854 12.8911ZM20.5275 17.1714V24.272H18.1245V15.244H20.3773L20.5275 17.1714ZM20.177 19.4409H19.5262C19.5262 18.7734 19.6124 18.1727 19.7849 17.6387C19.9573 17.0991 20.1993 16.6402 20.5108 16.262C20.8223 15.8782 21.1922 15.5861 21.6205 15.3859C22.0544 15.1801 22.5383 15.0772 23.0723 15.0772C23.4951 15.0772 23.8816 15.1383 24.2321 15.2607C24.5825 15.3831 24.8829 15.5778 25.1332 15.8448C25.3891 16.1118 25.5838 16.465 25.7173 16.9044C25.8563 17.3439 25.9259 17.8807 25.9259 18.5148V24.272H23.5062V18.5064C23.5062 18.1059 23.4506 17.7944 23.3393 17.5719C23.2281 17.3494 23.064 17.1937 22.847 17.1047C22.6356 17.0101 22.3742 16.9628 22.0627 16.9628C21.7401 16.9628 21.4592 17.0268 21.22 17.1548C20.9864 17.2827 20.7917 17.4607 20.6359 17.6888C20.4857 17.9113 20.3717 18.1727 20.2938 18.4731C20.216 18.7734 20.177 19.0961 20.177 19.4409Z" fill="#21393A"/>
</svg>
