<svg width="80" height="46" viewBox="0 0 80 46" fill="none" xmlns="http://www.w3.org/2000/svg">
<rect width="80" height="46" rx="8" fill="white"/>
<path fill-rule="evenodd" clip-rule="evenodd" d="M16.0004 21.6599C15.8903 21.9352 15.8352 22.2289 15.7618 22.5225C15.5783 23.4034 15.4315 24.3394 15.2296 25.2203C14.8258 25.2203 14.4037 25.2203 14 25.2203C14.4588 22.2472 15.303 19.3476 15.67 16.1543C16.0738 16.1543 16.4775 16.1543 16.8629 16.1543C16.8079 16.4479 16.7345 16.7232 16.6978 17.0169C16.6978 17.0352 16.6611 17.0536 16.6611 17.0903C17.2116 16.3745 18.0558 15.879 19.3955 16.0258C20.7169 16.1543 21.4326 17.2004 21.4877 18.43C21.6161 20.779 20.3682 22.9079 17.7989 22.7244C16.9547 22.6693 16.3124 22.3573 16.0004 21.6599ZM17.7255 17.2004C16.6427 17.7509 15.5966 20.2835 16.8262 21.3663C17.6337 22.082 18.9 21.6966 19.4322 21.036C20.0378 20.2835 20.5884 18.118 19.6708 17.3472C19.3588 17.0903 18.8633 16.9985 18.4045 17.0536C18.0742 17.0719 17.909 17.1086 17.7255 17.2004Z" fill="#030000"/>
<path fill-rule="evenodd" clip-rule="evenodd" d="M27.1591 22.5958C26.7737 22.5958 26.3883 22.5958 25.9845 22.5958C26.0396 22.2288 26.113 21.8801 26.1864 21.5314C25.8377 22.0452 25.2321 22.6325 24.3512 22.7243C23.0849 22.8527 21.9287 22.2104 21.8186 21.1643C21.7819 20.8157 21.8002 20.2467 22.0939 19.8063C22.828 18.6501 24.7366 18.5767 26.6269 18.6318C27.1958 16.5396 24.1493 16.8516 23.1032 17.5306C23.1583 17.1269 23.2501 16.7415 23.3051 16.3377C25.1954 15.7505 27.7463 15.8973 27.8932 17.9344C27.9482 18.7419 27.7096 19.531 27.5628 20.3018C27.416 21.0542 27.2692 21.7883 27.1591 22.5958ZM23.1583 20.9258C23.195 21.458 23.7823 21.7516 24.2594 21.7516C25.5624 21.77 26.1864 20.6321 26.3883 19.5127C24.9201 19.4392 23.0665 19.6228 23.1583 20.9258Z" fill="#030000"/>
<path fill-rule="evenodd" clip-rule="evenodd" d="M29.9834 16.1726C30.2586 17.8794 30.589 19.531 30.8459 21.2745C31.8186 19.6045 32.7178 17.861 33.6721 16.1726C34.1126 16.1726 34.553 16.1726 35.0118 16.1726C33.8373 18.3015 32.4609 20.6322 31.1395 22.8711C30.7358 23.5685 30.3321 24.5045 29.7448 24.9633C29.2309 25.367 28.2399 25.4588 27.4141 25.2936C27.4324 24.9266 27.5609 24.6513 27.5792 24.3026C27.7444 24.2843 27.9463 24.3944 28.1481 24.3944C29.0474 24.3944 29.5429 23.5685 29.8732 22.9262C29.4879 20.7056 29.0658 18.5033 28.6804 16.2644C28.6437 16.2277 28.662 16.2093 28.6804 16.1726C29.1208 16.1726 29.5613 16.1726 29.9834 16.1726Z" fill="#030000"/>
<path fill-rule="evenodd" clip-rule="evenodd" d="M35.5463 26.358C35.271 27.918 34.9223 29.3861 34.647 30.9461C33.7845 30.9461 32.9219 30.9461 32.041 30.9461C32.4448 29.0374 32.7934 27.1472 33.1788 25.2569C33.5642 23.385 34.023 21.5131 34.2433 19.531C34.9407 19.476 35.8766 19.476 36.574 19.531C36.5556 19.9715 36.4455 20.3385 36.4088 20.7606C37.0879 20.0816 37.8219 19.1823 39.3819 19.3292C40.8684 19.476 41.6942 20.7239 41.8043 22.3022C42.0062 25.0183 40.6849 27.6794 38.2991 27.8629C36.8126 27.973 36.1152 27.294 35.5463 26.358ZM36.5923 22.3022C35.9867 23.1648 35.7849 24.8164 36.5556 25.4588C37.0328 25.8625 37.9137 25.6606 38.3174 25.3303C38.8313 24.9082 39.1983 24.1007 39.18 23.0913C39.1616 22.1737 38.7579 21.4029 37.7852 21.5314C37.2163 21.6048 36.8676 21.8985 36.5923 22.3022Z" fill="#009651"/>
<path fill-rule="evenodd" clip-rule="evenodd" d="M48.9432 27.6978C48.2642 27.6794 47.4934 27.7345 46.8694 27.6611C46.9428 27.294 46.9428 26.8352 46.9979 26.4682C46.796 26.6701 46.6492 26.9637 46.3923 27.2023C45.5481 27.9731 43.6578 28.1382 42.7219 27.3674C41.7125 26.5232 41.8777 24.5045 42.7219 23.642C43.6945 22.6326 45.5297 22.3757 47.42 22.5775C47.6035 21.8067 47.0897 21.3296 46.4473 21.2378C45.5114 21.1094 44.2634 21.5131 43.7129 21.8434C43.823 21.1828 43.8597 20.467 43.9882 19.8064C44.6488 19.5678 45.2728 19.3843 46.0619 19.3476C48.2458 19.2007 49.7507 19.9348 49.8975 21.8067C49.9709 22.7978 49.6773 23.8255 49.4571 24.7981C49.2552 25.7524 49.1084 26.7251 48.9432 27.6978ZM46.3189 24.0273C45.5297 24.0457 44.6672 24.3026 44.4837 24.8899C44.3368 25.4038 44.7039 25.8809 45.0893 25.9543C46.3005 26.2112 47.1264 25.0184 47.2181 24.064C46.9428 24.009 46.5391 24.0273 46.3189 24.0273Z" fill="#009651"/>
<path fill-rule="evenodd" clip-rule="evenodd" d="M56.9441 19.8063C56.8156 20.467 56.577 21.0175 56.4486 21.6782C55.8062 21.458 55.0354 21.1276 54.0261 21.2377C53.6223 21.2928 53.2186 21.4947 53.2186 21.8984C53.2369 22.3939 53.9894 22.5775 54.4482 22.761C55.0905 23.0363 55.8613 23.4033 56.1733 23.9539C56.7055 24.9082 56.1733 26.3029 55.6044 26.8902C55.1272 27.3857 54.228 27.7895 53.3103 27.8629C52.1175 27.9546 50.8695 27.7344 49.8418 27.4591C49.9886 26.7801 50.1538 26.1561 50.3373 25.5321C51.0163 25.8074 51.7871 26.0644 52.8332 25.9726C53.3287 25.9175 53.8793 25.7524 53.8059 25.1651C53.7508 24.6879 53.0351 24.5228 52.5029 24.3026C51.5118 23.8988 50.7778 23.3849 50.7778 22.0452C50.7778 19.2924 54.595 18.8336 56.9441 19.8063Z" fill="#009651"/>
<path fill-rule="evenodd" clip-rule="evenodd" d="M63.4409 19.8063C63.2941 20.4486 63.0922 21.0543 62.9087 21.6782C62.3031 21.4397 61.514 21.1277 60.5046 21.2378C60.1009 21.2745 59.6971 21.4764 59.6971 21.8985C59.7155 22.4123 60.6331 22.6876 61.0552 22.8711C61.9177 23.2382 62.7436 23.6419 62.8537 24.6329C62.9638 25.6056 62.56 26.3947 61.9911 26.9269C61.4589 27.4408 60.6698 27.7895 59.7889 27.8629C58.5776 27.9547 57.4031 27.7344 56.3203 27.4592C56.4304 26.7618 56.6507 26.1929 56.7791 25.5322C57.2746 25.679 57.7518 25.9176 58.339 25.9726C59.1649 26.046 60.2844 25.991 60.266 25.2752C60.2477 24.5045 58.651 24.3393 58.0271 23.8438C57.348 23.3116 56.9259 22.0086 57.4581 20.9441C58.339 19.2925 61.3672 18.9254 63.4409 19.8063Z" fill="#009651"/>
<path d="M64.4124 20.6506H64.082L64.1004 20.5221H64.9079L64.8895 20.6506H64.5592L64.3757 21.6599H64.2288L64.4124 20.6506Z" fill="#009651"/>
<path d="M65.7703 21.6599L65.8437 21.0543C65.8621 20.9442 65.8804 20.779 65.8988 20.6689C65.8437 20.779 65.7887 20.9258 65.7153 21.036L65.3849 21.6599H65.2748L65.183 21.0543C65.1647 20.9258 65.1463 20.7974 65.1463 20.6689C65.128 20.779 65.0913 20.9442 65.0546 21.0543L64.9078 21.6599H64.7793L65.0729 20.5221H65.2565L65.3482 21.1644C65.3666 21.2562 65.3666 21.3663 65.3666 21.4581C65.4033 21.3663 65.4583 21.2745 65.495 21.1828L65.8437 20.5221H66.0272L65.8804 21.6599H65.7703Z" fill="#009651"/>
</svg>
