<svg width="80" height="46" viewBox="0 0 80 46" fill="none" xmlns="http://www.w3.org/2000/svg">
<rect width="80" height="46" rx="8" fill="white"/>
<path d="M33.7003 21.7031C33.5595 22.7593 32.7146 22.7593 31.9401 22.7593H31.5176L31.8697 20.7174C31.8697 20.5766 32.0105 20.5062 32.1513 20.5062H32.3625C32.9258 20.5062 33.4187 20.5062 33.7003 20.7878C33.7003 21.0694 33.7003 21.3511 33.7003 21.7031ZM33.3483 18.8867H30.3206C30.1094 18.8867 29.9686 19.0275 29.8982 19.2388L28.7012 26.9839C28.7012 27.1248 28.7716 27.2656 28.9828 27.2656H30.391C30.6023 27.2656 30.7431 27.1248 30.8135 26.9135L31.1655 24.8012C31.1655 24.59 31.3768 24.4492 31.588 24.4492H32.5738C34.5453 24.4492 35.6718 23.4634 36.0239 21.5623C36.1647 20.7174 36.0239 20.0837 35.6718 19.5908C35.1085 19.1684 34.334 18.8867 33.3483 18.8867Z" fill="#263577"/>
<path d="M40.319 24.5196C40.1782 25.3646 39.5445 25.9278 38.6996 25.9278C38.2771 25.9278 37.9251 25.787 37.7138 25.5054C37.5026 25.2237 37.4322 24.8717 37.5026 24.5196C37.6434 23.6747 38.2771 23.1114 39.1221 23.1114C39.5445 23.1114 39.8966 23.2522 40.1078 23.5339C40.2486 23.7451 40.3894 24.0972 40.319 24.5196ZM42.2905 21.7032H40.8823C40.7415 21.7032 40.6711 21.7736 40.6007 21.9144L40.5303 22.3369L40.4599 22.1961C40.1782 21.7736 39.4741 21.5624 38.77 21.5624C37.1506 21.5624 35.8128 22.7594 35.5311 24.4492C35.3903 25.2941 35.6015 26.0687 36.0944 26.6319C36.5168 27.1248 37.1506 27.3361 37.9251 27.3361C39.1925 27.3361 39.8966 26.4911 39.8966 26.4911L39.8262 26.9136C39.8262 27.0544 39.8966 27.1952 40.1078 27.1952H41.3752C41.5864 27.1952 41.7272 27.0544 41.7977 26.8432L42.5722 21.9144C42.5722 21.844 42.5018 21.7032 42.2905 21.7032Z" fill="#263577"/>
<path d="M49.9656 21.7032H48.4869C48.3461 21.7032 48.2053 21.7737 48.1349 21.9145L46.1634 24.8717L45.3184 22.0553C45.248 21.8441 45.1072 21.7737 44.896 21.7737H43.4878C43.3469 21.7737 43.2061 21.9145 43.2765 22.1257L44.896 26.7728L43.4173 28.8851C43.2765 29.026 43.4174 29.3076 43.6286 29.3076H45.1072C45.248 29.3076 45.3889 29.2372 45.4593 29.0964L50.2472 22.1257C50.3176 21.9145 50.1768 21.7032 49.9656 21.7032Z" fill="#263577"/>
<path d="M55.1046 21.7031C54.9638 22.7593 54.1189 22.7593 53.3444 22.7593H52.9219L53.2739 20.7174C53.2739 20.5766 53.4148 20.5062 53.5556 20.5062H53.7668C54.3301 20.5062 54.823 20.5062 55.1046 20.7878C55.175 21.0694 55.175 21.3511 55.1046 21.7031ZM54.7526 18.8867H51.7249C51.5137 18.8867 51.3729 19.0275 51.3025 19.2388L50.1055 26.9839C50.1055 27.1248 50.1759 27.2656 50.3871 27.2656H51.9361C52.077 27.2656 52.2178 27.1952 52.2178 26.9839L52.5698 24.8012C52.5698 24.59 52.7811 24.4492 52.9923 24.4492H53.9781C55.9496 24.4492 57.0761 23.4634 57.4282 21.5623C57.569 20.7174 57.4282 20.0837 57.0761 19.5908C56.5833 19.1684 55.8087 18.8867 54.7526 18.8867Z" fill="#2199D6"/>
<path d="M61.7936 24.5196C61.6528 25.3646 61.0191 25.9278 60.1742 25.9278C59.7517 25.9278 59.3997 25.787 59.1885 25.5054C58.9772 25.2237 58.9068 24.8717 58.9772 24.5196C59.118 23.6747 59.7517 23.1114 60.5967 23.1114C61.0191 23.1114 61.3712 23.2522 61.5824 23.5339C61.7232 23.7451 61.864 24.0972 61.7936 24.5196ZM63.7651 21.7032H62.3569C62.2161 21.7032 62.1457 21.7736 62.0753 21.9144L62.0049 22.3369L61.9345 22.1961C61.6528 21.7736 60.9487 21.5624 60.2446 21.5624C58.6252 21.5624 57.2874 22.7594 57.0057 24.4492C56.8649 25.2941 57.0761 26.0687 57.569 26.6319C57.9915 27.1248 58.6252 27.3361 59.3997 27.3361C60.6671 27.3361 61.3712 26.4911 61.3712 26.4911L61.3008 26.9136C61.3008 27.0544 61.3712 27.1952 61.5824 27.1952H62.8498C63.061 27.1952 63.2019 27.0544 63.2723 26.8432L64.0468 21.9144C64.0468 21.844 63.906 21.7032 63.7651 21.7032Z" fill="#2199D6"/>
<path d="M65.4549 19.098L64.1875 26.9839C64.1875 27.1248 64.2579 27.2656 64.4692 27.2656H65.7365C65.9478 27.2656 66.0886 27.1248 66.159 26.9135L67.356 19.1684C67.356 19.0275 67.2856 18.8867 67.0743 18.8867H65.6661C65.5957 18.8867 65.5253 19.0275 65.4549 19.098Z" fill="#2199D6"/>
<path d="M16.1679 28.7443L16.3791 27.2657H15.8862H13.4219L15.1117 16.4929C15.1117 16.4929 15.1117 16.4225 15.1821 16.4225H15.2526H19.4068C20.7446 16.4225 21.7303 16.7041 22.2232 17.2674C22.4344 17.5491 22.5753 17.8307 22.6457 18.1123C22.7161 18.4644 22.7161 18.8164 22.6457 19.3093V19.591L22.8569 19.7318C23.0681 19.8022 23.209 19.943 23.3498 20.0838C23.561 20.2951 23.7018 20.5767 23.7018 20.9288C23.7722 21.2808 23.7722 21.7033 23.6314 22.1962C23.4906 22.7594 23.3498 23.1819 23.1385 23.6044C22.9273 23.9564 22.6457 24.2381 22.364 24.5197C22.0824 24.7309 21.6599 24.8718 21.3079 25.0126C20.8854 25.083 20.4629 25.1534 19.9701 25.1534H19.618C19.4068 25.1534 19.1956 25.2238 18.9843 25.3646C18.8435 25.5055 18.7027 25.7167 18.6323 25.9279V26.0687L18.2098 28.6739V28.7443V28.8148C18.2098 28.8148 18.2098 28.8148 18.1394 28.8148H16.1679V28.7443Z" fill="#263577"/>
<path d="M23.1392 19.3091C23.1392 19.3795 23.1392 19.4499 23.0688 19.5203C22.5055 22.3367 20.6748 23.2521 18.2809 23.2521H17.0839C16.8022 23.2521 16.5206 23.4633 16.5206 23.745L15.8869 27.688L15.7461 28.8145C15.7461 29.0258 15.8869 29.1666 16.0277 29.1666H18.2105C18.4921 29.1666 18.7033 28.9553 18.7033 28.7441V28.6033L19.1258 26.0685V25.9277C19.1962 25.646 19.4074 25.5052 19.6187 25.5052H19.9707C22.0831 25.5052 23.7025 24.6603 24.125 22.1959C24.3362 21.1398 24.1954 20.2948 23.7025 19.7315C23.5617 19.5907 23.3504 19.4499 23.1392 19.3091Z" fill="#2199D6"/>
<path d="M22.5748 19.098C22.5044 19.098 22.434 19.0275 22.2932 19.0275C22.2228 19.0275 22.082 18.9571 22.0116 18.9571C21.6595 18.8867 21.3074 18.8867 20.9554 18.8867H17.7165C17.6461 18.8867 17.5757 18.8867 17.5053 18.9571C17.3645 19.0275 17.2236 19.1684 17.2236 19.3092L16.5195 23.6746V23.8155C16.5899 23.5338 16.8012 23.3226 17.0828 23.3226H18.2798C20.6738 23.3226 22.5044 22.3368 23.0677 19.5908C23.0677 19.5204 23.0677 19.45 23.1381 19.3796C22.9973 19.3092 22.8565 19.2388 22.7157 19.1684C22.6452 19.098 22.5748 19.098 22.5748 19.098Z" fill="#252C5E"/>
<path d="M17.2246 19.3093C17.2246 19.1685 17.3655 19.0277 17.5063 18.9572C17.5767 18.9572 17.6471 18.8868 17.7175 18.8868H20.9564C21.3084 18.8868 21.7309 18.8868 22.0126 18.9572C22.083 18.9572 22.2238 18.9572 22.2942 19.0277C22.3646 19.0277 22.435 19.0981 22.5758 19.0981C22.6463 19.0981 22.6463 19.0981 22.7167 19.1685C22.8575 19.2389 22.9983 19.3093 23.1391 19.3797C23.28 18.3236 23.1391 17.6194 22.5758 16.9857C21.9421 16.2816 20.8156 16 19.4074 16H15.2531C14.9715 16 14.6899 16.2112 14.6899 16.4929L13 27.3361C13 27.5473 13.1408 27.7586 13.3521 27.7586H15.8868L16.5205 23.6748L17.2246 19.3093Z" fill="#263577"/>
</svg>
