<svg width="20" height="20" viewBox="0 0 20 20" fill="none" xmlns="http://www.w3.org/2000/svg">
<path d="M12.6518 10.1517C11.9485 10.8549 10.9947 11.25 10.0001 11.25C9.00556 11.25 8.05173 10.8549 7.34847 10.1517C6.64521 9.44839 6.25012 8.49456 6.25012 7.5C6.25012 6.50544 6.64521 5.55161 7.34847 4.84835C8.05173 4.14509 9.00556 3.75 10.0001 3.75C10.9947 3.75 11.9485 4.14509 12.6518 4.84835C13.355 5.55161 13.7501 6.50544 13.7501 7.5C13.7501 8.49456 13.355 9.44839 12.6518 10.1517ZM10.0001 10.75C10.4269 10.75 10.8495 10.6659 11.2438 10.5026C11.6382 10.3393 11.9964 10.0999 12.2982 9.7981C12.6 9.49631 12.8394 9.13803 13.0027 8.74372C13.1661 8.34941 13.2501 7.9268 13.2501 7.5C13.2501 7.0732 13.1661 6.65059 13.0027 6.25628C12.8394 5.86197 12.6 5.50369 12.2982 5.2019C11.9964 4.90011 11.6382 4.66072 11.2438 4.49739C10.8495 4.33406 10.4269 4.25 10.0001 4.25C9.13817 4.25 8.31152 4.59241 7.70202 5.2019C7.09253 5.8114 6.75012 6.63805 6.75012 7.5C6.75012 8.36195 7.09253 9.1886 7.70202 9.7981C8.31152 10.4076 9.13817 10.75 10.0001 10.75Z" fill="black" stroke="#21393A" stroke-width="0.5"/>
<path d="M10 19.25C11.7526 19.2532 13.4696 18.7557 14.949 17.816L14.9806 17.796L15.0049 17.7676C15.1547 17.5926 15.307 17.4109 15.4617 17.2227L15.4619 17.2224C15.6479 16.9952 15.7497 16.7065 15.75 16.4103M10 19.25C8.20556 19.2532 6.44937 18.7315 4.94765 17.7492L4.91423 17.7274L4.88928 17.6962C4.7683 17.5449 4.6457 17.3888 4.5215 17.2276L4.52078 17.2267C4.34439 16.9956 4.24921 16.7128 4.25 16.4221M10 19.25C10.0001 19.25 10.0003 19.25 10.0005 19.25L10 19L9.99954 19.25C9.99969 19.25 9.99984 19.25 10 19.25ZM4.25 16.4221C4.25018 15.7631 4.72484 15.2035 5.36836 15.1096C8.8171 14.6058 11.1975 14.6496 14.6448 15.1269L14.6467 15.1271C14.9544 15.1721 15.2354 15.3267 15.4382 15.5625C15.6409 15.7983 15.7516 16.0994 15.75 16.4103M4.25 16.4221C4.25 16.4223 4.25 16.4224 4.25 16.4225H4.5L4.25 16.4217C4.25 16.4219 4.25 16.422 4.25 16.4221ZM15.75 16.4103L15.5 16.409H15.75C15.75 16.4094 15.75 16.4099 15.75 16.4103ZM16.2903 16.8035L16.2434 16.2543C16.1731 15.4312 15.5486 14.7472 14.7133 14.6316L14.7132 14.6316C11.2255 14.1489 8.79738 14.1032 5.29615 14.6149L5.29608 14.6149C4.45496 14.7375 3.83159 15.4286 3.7575 16.2563L3.70864 16.8023L3.32841 16.4074C1.67118 14.6863 0.746778 12.3891 0.75 9.99983M16.2903 16.8035L19.25 9.99966C19.2498 4.89124 15.1085 0.75 10 0.75C4.89149 0.75 0.750092 4.89134 0.75 9.99983M16.2903 16.8035L16.6726 16.4064M16.2903 16.8035L16.6726 16.4064M0.75 9.99983C0.75 9.99989 0.75 9.99994 0.75 10H1L0.75 9.99966C0.75 9.99972 0.75 9.99977 0.75 9.99983ZM3.5085 16.234L3.2595 16.2117C3.26597 16.1394 3.27575 16.0679 3.28871 15.9974C3.36042 16.0774 3.4337 16.1563 3.5085 16.234ZM3.5085 16.234L3.68859 16.0606C3.64516 16.0155 3.60226 15.97 3.55991 15.924C3.53525 16.025 3.51794 16.1285 3.5085 16.234ZM16.6726 16.4064C18.3292 14.6854 19.2532 12.3887 19.25 10L16.6726 16.4064ZM14.7475 14.384C11.2395 13.8985 8.7875 13.852 5.26 14.3675L14.7475 14.384ZM19.75 10C19.75 15.3849 15.3849 19.75 10 19.75C4.61507 19.75 0.25 15.3849 0.25 10C0.25 4.61507 4.61507 0.25 10 0.25C15.3849 0.25 19.75 4.61507 19.75 10Z" fill="black" stroke="#21393A" stroke-width="0.5"/>
</svg>
