<svg width="14" height="11" viewBox="0 0 14 11" fill="none" xmlns="http://www.w3.org/2000/svg">
<path fill-rule="evenodd" clip-rule="evenodd" d="M13.678 0.240941C14.0727 0.589747 14.1096 1.19315 13.7608 1.59033L6.44096 9.86491C6.35643 9.96049 6.25359 10.0382 6.13853 10.0933C6.02347 10.1485 5.89852 10.18 5.77106 10.1861C5.6436 10.1921 5.51623 10.1726 5.39646 10.1286C5.27669 10.0846 5.16695 10.017 5.07374 9.92984L0.299948 5.47429C0.1163 5.30122 0.00863864 5.06248 0.000497533 4.81027C-0.00764357 4.55805 0.084398 4.31286 0.256503 4.12831C0.428608 3.94376 0.666777 3.83484 0.918949 3.82538C1.17112 3.81591 1.41679 3.90667 1.60224 4.0778L5.66315 7.85865L12.3337 0.322414C12.4169 0.228331 12.5178 0.151578 12.6307 0.0965508C12.7436 0.0415238 12.8662 0.00930355 12.9915 0.00173555C13.1169 -0.00583245 13.2425 0.0114005 13.3612 0.0524472C13.4798 0.0934938 13.5892 0.157548 13.6831 0.240941H13.678Z" fill="#21393A"/>
</svg>
